<svg width="400" height="400" viewBox="0 0 400 400" fill="none" xmlns="http://www.w3.org/2000/svg">
<rect x="0.5" y="0.5" width="399" height="399" rx="99.5" fill="#111111" stroke="black"/>
<path d="M201.203 306.576C181.946 306.576 165.358 302.095 151.439 293.134C137.521 283.982 126.843 271.493 119.407 255.668C112.162 239.843 108.539 221.539 108.539 200.756C108.539 180.355 112.257 162.146 119.693 146.13C127.32 130.114 138.188 117.53 152.297 108.378C166.407 99.0353 183.376 94.364 203.205 94.364C220.365 94.364 234.761 97.3193 246.391 103.23C258.213 109.141 267.651 117.339 274.705 127.826C281.76 138.313 286.717 150.42 289.577 164.148L250.681 166.15C248.584 154.138 243.817 144.605 236.381 137.55C229.136 130.305 218.173 126.682 203.491 126.682C190.526 126.682 179.849 130.019 171.459 136.692C163.261 143.365 157.064 152.327 152.869 163.576C148.865 174.635 146.863 187.028 146.863 200.756C146.863 214.865 148.865 227.449 152.869 238.508C156.873 249.567 163.07 258.337 171.459 264.82C180.039 271.112 190.812 274.258 203.777 274.258C213.883 274.258 222.558 272.161 229.803 267.966C237.049 263.771 242.769 258.051 246.963 250.806C251.158 243.37 253.446 235.171 253.827 226.21H203.777V197.324H290.149V302H266.125L263.837 257.384L268.413 260.244C266.316 269.396 262.026 277.499 255.543 284.554C249.251 291.418 241.339 296.852 231.805 300.856C222.463 304.669 212.262 306.576 201.203 306.576Z" fill="#FC8F4C"/>
</svg>
